<svg id="Laag_2" data-name="Laag 2" xmlns="http://www.w3.org/2000/svg" xmlns:xlink="http://www.w3.org/1999/xlink" viewBox="0 0 123.41 196.72"><defs><style>.cls-1{fill:url(#Naamloos_verloop_61);}.cls-2{fill:url(#Naamloos_verloop_61-2);}.cls-3{fill:url(#Naamloos_verloop_56);}</style><linearGradient id="Naamloos_verloop_61" x1="-53.32" y1="152.42" x2="155" y2="120.44" gradientUnits="userSpaceOnUse"><stop offset="0" stop-color="#4cc9ff"/><stop offset="1" stop-color="#7dafff"/></linearGradient><linearGradient id="Naamloos_verloop_61-2" x1="-61.51" y1="95.91" x2="146.81" y2="63.93" xlink:href="#Naamloos_verloop_61"/><linearGradient id="Naamloos_verloop_56" x1="4.75" y1="263.73" x2="186.8" y2="-49.2" gradientUnits="userSpaceOnUse"><stop offset="0.01" stop-color="#7259d6"/><stop offset="1" stop-color="#30bbbf"/></linearGradient></defs><title>logo</title><path class="cls-1" d="M39.34,139.18a3.58,3.58,0,0,1,0-5.05l24-24,5.06-5L94.94,131.6l-5,5.06L63.34,163.19Z" transform="translate(-38.29 -1.64)"/><path class="cls-2" d="M105.06,68.4l5-5.06,26.55-26.53,24,24a3.58,3.58,0,0,1,0,5.05l-24,24-5.06,5Z" transform="translate(-38.29 -1.64)"/><path class="cls-3" d="M160.66,139.18l-58.13,58.13a3.57,3.57,0,0,1-5.06,0L68.4,168.24,94.94,141.7l2.53,2.53a3.57,3.57,0,0,0,5.06,0l5-5a3.57,3.57,0,0,0,0-5.06l-2.52-2.52L68.4,94.94,39.34,65.87a3.58,3.58,0,0,1,0-5.05L97.47,2.69a3.57,3.57,0,0,1,5.06,0L131.6,31.76,105.06,58.3l-2.53-2.53a3.57,3.57,0,0,0-5.06,0l-5,5a3.57,3.57,0,0,0,0,5.06l2.52,2.52,5,5.06L126.53,100l5.07,5.06,29.06,29.07A3.58,3.58,0,0,1,160.66,139.18Z" transform="translate(-38.29 -1.64)"/></svg>